<!-- facebook -->

<svg id="" class="" viewBox="0 0 80 80">
<path stroke="black" stroke-width=2 fill= "none" stroke-linecap="round" stroke-linejoin="round" d="
      M  44,80 6,80
      A  6,6   0 0 1 0,74
      M 0,74 0,6
      A  6,6   0 0 1 6,0
      M 6,0 74,0
      A  6,6   0 0 1 80,6
      M 80,6 80,74
      A  6,6   0 0 1 74,80
      M 74,80 56,80 56,49 67,49 69,36 56,36 56,27
      A  4,4   0 0 1 60,23
      M 60,23 69,23 69,11 57,11
      M  44,25 44,36 33,36 33,49 44,49 44,80
      M  44,25
      A  13,13   0 0 1 57,11
      M 57,11"
/>
</svg>
